<?xml version="1.0" encoding="UTF-8" standalone="no"?>
<svg
   xmlns:dc="http://purl.org/dc/elements/1.1/"
   xmlns:cc="http://creativecommons.org/ns#"
   xmlns:rdf="http://www.w3.org/1999/02/22-rdf-syntax-ns#"
   xmlns:svg="http://www.w3.org/2000/svg"
   xmlns="http://www.w3.org/2000/svg"
   version="1.1"
   width="480"
   height="480"
   viewBox="0 0 480 480"
   id="svg3207">
  <metadata
     id="metadata3213">
    <rdf:RDF>
      <cc:Work
         rdf:about="">
        <dc:format>image/svg+xml</dc:format>
        <dc:type
           rdf:resource="http://purl.org/dc/dcmitype/StillImage" />
        <dc:title></dc:title>
      </cc:Work>
    </rdf:RDF>
  </metadata>
  <defs
     id="defs3211" />
  <g
     id="text3205"
     aria-label="InvictaTouch">
    <path
       id="path3222"
       style="font-weight:800"
       d="m 95.113998,378 v 35 H 103.114 v -35 z" />
    <path
       id="path3224"
       style="font-weight:800"
       d="m 123.47884,387.3 c -3.3,0 -5.8,1.2 -7.15,3.05 V 388 h -7.5 v 25 h 7.5 v -13.65 c 0,-3.55 1.9,-5.15 4.65,-5.15 2.4,0 4.35,1.45 4.35,4.55 V 413 h 7.5 v -15.35 c 0,-6.75 -4.3,-10.35 -9.35,-10.35 z" />
    <path
       id="path3226"
       style="font-weight:800"
       d="m 153.48978,388 -5.2,15.85 -5.2,-15.85 h -8.3 l 9.25,25 h 8.5 l 9.25,-25 z" />
    <path
       id="path3228"
       style="font-weight:800"
       d="m 168.2429,385.8 c 2.45,0 4.5,-2.05 4.5,-4.5 0,-2.45 -2.05,-4.5 -4.5,-4.5 -2.45,0 -4.5,2.05 -4.5,4.5 0,2.45 2.05,4.5 4.5,4.5 z m -3.75,27.2 h 7.5 v -25 h -7.5 z" />
    <path
       id="path3230"
       style="font-weight:800"
       d="m 189.48119,413.7 c 4.9,0 9.15,-2.55 11.3,-6.45 l -6.55,-3.75 c -0.8,1.75 -2.65,2.8 -4.85,2.8 -3.25,0 -5.65,-2.35 -5.65,-5.8 0,-3.45 2.4,-5.8 5.65,-5.8 2.2,0 4,1.05 4.85,2.8 l 6.55,-3.8 c -2.15,-3.85 -6.45,-6.4 -11.3,-6.4 -7.6,0 -13.25,5.75 -13.25,13.2 0,7.45 5.65,13.2 13.25,13.2 z" />
    <path
       id="path3232"
       style="font-weight:800"
       d="M 218.40072,395.2 V 388 h -5.15 v -7 l -7.5,2.25 V 388 h -4 v 7.2 h 4 v 8.85 c 0,7 2.85,9.95 12.65,8.95 v -6.8 c -3.3,0.2 -5.15,0 -5.15,-2.15 v -8.85 z" />
    <path
       id="path3234"
       style="font-weight:800"
       d="m 240.35775,388 v 2.35 c -1.65,-1.9 -4.1,-3.05 -7.45,-3.05 -6.55,0 -11.95,5.75 -11.95,13.2 0,7.45 5.4,13.2 11.95,13.2 3.35,0 5.8,-1.15 7.45,-3.05 V 413 h 7.5 v -25 z m -5.95,18.6 c -3.45,0 -5.95,-2.35 -5.95,-6.1 0,-3.75 2.5,-6.1 5.95,-6.1 3.45,0 5.95,2.35 5.95,6.1 0,3.75 -2.5,6.1 -5.95,6.1 z" />
    <path
       id="path3236"
       style="font-weight:300"
       d="m 276.46009,378 h -24.7 v 2.5 h 11 V 413 h 2.7 v -32.5 h 11 z" />
    <path
       id="path3238"
       style="font-weight:300"
       d="m 288.37103,413.55 c 7.25,0 13.1,-5.65 13.1,-13.05 0,-7.4 -5.85,-13.05 -13.1,-13.05 -7.3,0 -13.15,5.65 -13.15,13.05 0,7.4 5.85,13.05 13.15,13.05 z m 0,-2.4 c -5.95,0 -10.6,-4.7 -10.6,-10.65 0,-5.95 4.65,-10.65 10.6,-10.65 5.95,0 10.55,4.7 10.55,10.65 0,5.95 -4.6,10.65 -10.55,10.65 z" />
    <path
       id="path3240"
       style="font-weight:300"
       d="m 325.48744,388 v 13.2 c 0,6.75 -3.85,9.95 -8.75,9.95 -4.7,0 -7.35,-3 -7.35,-7.6 V 388 h -2.55 v 15.55 c 0,6.05 3.75,10 9.7,10 3.85,0 7.05,-1.6 8.95,-5.3 V 413 h 2.5 v -25 z" />
    <path
       id="path3242"
       style="font-weight:300"
       d="m 347.16009,413.55 c 4.9,0 9.1,-2.5 11.1,-6.35 l -2.1,-1.25 c -1.65,3.1 -4.95,5.2 -9,5.2 -6.05,0 -10.6,-4.7 -10.6,-10.65 0,-5.95 4.55,-10.65 10.6,-10.65 4,0 7.4,2.05 8.85,5.2 l 2.05,-1.2 c -1.8,-3.9 -6,-6.4 -10.9,-6.4 -7.55,0 -13.15,5.65 -13.15,13.05 0,7.4 5.6,13.05 13.15,13.05 z" />
    <path
       id="path3244"
       style="font-weight:300"
       d="m 375.18744,387.45 c -3.85,0 -7.05,1.6 -8.95,5.3 V 378 h -2.5 v 35 h 2.5 v -13.2 c 0,-6.75 3.85,-9.95 8.75,-9.95 4.7,0 7.35,3 7.35,7.6 V 413 h 2.55 v -15.55 c 0,-6.05 -3.75,-10 -9.7,-10 z" />
  </g>
  <path
     id="path24"
     d="m 286.63862,343.21075 c -0.81483,-0.98181 -0.58296,-3.12795 0.89136,-8.25 1.09597,-3.80764 1.90837,-8.49798 1.80532,-10.42298 -0.10305,-1.925 0.79074,-6.10438 1.9862,-9.28751 2.72506,-7.25599 2.74599,-12.62725 0.081,-20.79733 -3.07296,-9.42093 -5.78189,-13.65152 -10.51897,-16.42763 -6.8259,-4.00025 -13.04599,-11.96978 -19.11208,-24.48753 -3.0651,-6.325 -5.66553,-11.62183 -5.77874,-11.77074 -0.23239,-0.30567 -10.81679,1.84544 -11.32752,2.30214 -0.18141,0.16221 0.71859,2.11988 2,4.35037 2.32874,4.05354 2.32889,4.05636 0.32983,6.00142 -1.1,1.07028 -5.375,2.93279 -9.5,4.13891 -6.05961,1.77179 -8.47952,3.11623 -12.60026,7.00042 -3.0223,2.8488 -6.82219,5.32337 -9.32666,6.07373 -3.17631,0.95165 -4.98361,2.36681 -7.27394,5.6957 -2.77901,4.03914 -3.33711,4.38243 -6.33403,3.8961 -4.25236,-0.69006 -4.58942,-0.22983 -2.8611,3.90662 1.78881,4.28123 0.48504,7.28527 -5.51406,12.7051 -8.99706,8.1283 -15.6541,5.56595 -11.63513,-4.47845 0.88725,-2.21745 1.35235,-4.85354 1.03355,-5.85797 -0.83421,-2.62838 7.00717,-17.80171 9.79009,-18.94413 1.22185,-0.50159 4.73647,-1.60258 7.81026,-2.44665 6.35074,-1.74391 19.91132,-11.53689 19.91132,-14.37923 0,-1.05869 -2.88854,-5.09104 -8.71586,-12.16721 -2.31873,-2.81565 -4.67872,-6.78589 -5.24443,-8.82275 -1.52472,-5.48986 -1.25837,-13.61643 0.59838,-18.25689 1.44196,-3.60381 1.93485,-4.01951 4.11667,-3.47191 12.67362,3.18088 12.69651,2.69945 0.64076,-13.47426 -9.29225,-12.46626 -10.76325,-14.01343 -12.7024,-13.36016 -3.25511,1.09659 -13.05139,0.72673 -17.22378,-0.65028 -3.4905,-1.15197 -3.8026,-1.05921 -7.06063,2.09861 -3.32667,3.22433 -3.40871,3.4991 -3.40871,11.41655 0,5.58511 0.45743,8.71748 1.4682,10.05383 0.80751,1.06762 1.48251,3.37707 1.5,5.13211 0.0385,3.8679 1.0531,4.63162 4.44144,3.34338 2.36392,-0.89876 2.74176,-0.65791 4.56044,2.90699 4.23044,8.29235 5.01549,20.05865 1.33832,20.05865 -0.88054,0 -3.76588,-2.025 -6.41185,-4.5 -2.64598,-2.475 -5.42095,-4.5 -6.16661,-4.5 -2.2553,0 -6.15132,-5.07927 -9.97617,-13.00601 l -3.62185,-7.50602 0.58525,-15.22806 c 0.70423,-18.32383 1.81887,-21.25991 8.07103,-21.25991 2.38175,0 6.8066,-1.44482 11.7647,-3.84145 4.37091,-2.1128 9.6346,-4.3977 11.6971,-5.07755 2.0625,-0.67986 3.75,-1.48197 3.75,-1.78248 0,-0.30051 -2.00259,-2.30913 -4.4502,-4.4636 -2.44761,-2.15448 -7.36838,-7.89305 -10.93504,-12.75239 -10.04439,-13.68485 -11.29073,-14.29742 -24.23615,-11.91213 -4.62527,0.85223 -6.50985,1.66776 -6.93269,3 -0.65962,2.07827 -5.34267,2.53284 -7.1787,0.69681 -0.62303,-0.62303 -1.89561,-0.84005 -2.82797,-0.48228 -1.69227,0.64939 -1.66782,4.44186 0.0567,8.79748 1.33244,3.36527 -9.07154,6.54751 -15.63138,4.78113 -4.43942,-1.19541 -5.01733,-3.35826 -1.89786,-7.10276 2.39271,-2.87211 2.65642,-1.74147 0.39781,1.70561 -1.97953,3.02115 -1.62851,3.45439 3.33864,4.12062 5.56307,0.74617 11.54721,-1.89965 11.1191,-4.91619 -0.28507,-2.00863 -0.83356,-2.24692 -4.75044,-2.06381 -3.45952,0.16173 -4.95359,0.81796 -6.83019,3 -1.7797,2.06936 -2.21426,2.27481 -1.67729,0.79299 0.39861,-1.1 0.69943,-2.9 0.66848,-4 -0.12147,-4.31706 0.91897,-6.52715 3.7658,-7.9993 1.63332,-0.84462 4.48485,-3.05085 6.33673,-4.90274 2.84287,-2.84287 4.51895,-3.55286 10.76585,-4.56046 4.06933,-0.65636 11.14681,-2.05831 15.72774,-3.11544 12.15157,-2.8042 13.36687,-2.64315 18.37448,2.43507 5.00358,5.07413 13.04534,9.44778 20.69596,11.25587 l 5.3994,1.27605 4.20359,-3.44453 c 2.31198,-1.89449 4.88965,-3.44452 5.72816,-3.44452 0.83851,0 2.00843,-0.58303 2.59983,-1.29562 1.54824,-1.86552 -7.33914,-4.49226 -9.86409,-2.9154 -2.40061,1.4992 -2.94634,0.61842 -1.68587,-2.72093 0.89378,-2.3679 0.71733,-3.25547 -1.10873,-5.57693 -1.19443,-1.51846 -2.17169,-3.51016 -2.17169,-4.42598 0,-0.91583 -0.5625,-2.23544 -1.25,-2.93247 -1.00197,-1.01586 -0.85316,-1.5602 0.75,-2.74342 1.1,-0.81186 2.92312,-1.70792 4.05137,-1.99124 1.20866,-0.30351 3.41873,-3.002372 5.37989,-6.569712 1.83069,-3.33003 4.55952,-7.46618 6.06406,-9.19145 4.46112,-5.11562 7.34291,-11.52438 5.94144,-13.21306 -0.64991,-0.78309 -1.95528,-1.42379 -2.90082,-1.42379 -1.37308,0 -1.73356,-0.95184 -1.79065,-4.72813 -0.0936,-6.1924 1.02295,-8.04397 5.33908,-8.85368 2.40025,-0.45029 3.83736,-1.39723 4.41124,-2.90665 1.5022,-3.951074 7.51379,-4.816121 10.50439,-1.511544 2.76869,3.059374 3.5,2.444874 3.5,-2.940983 0,-2.71754 0.44502,-5.21602 0.98893,-5.552177 1.15274,-0.712427 6.45384,7.274693 8.06164,12.146404 1.23259,3.73477 2.17394,3.98655 7.14276,1.91044 3.91953,-1.63768 9.80246,-0.78245 12.70852,1.84749 0.9656,0.87386 2.07592,1.58883 2.46738,1.58883 0.39147,0 2.03415,0.97769 3.65042,2.17265 2.20269,1.62851 2.67188,2.4941 1.87342,3.45619 -1.61747,1.94894 -0.14654,3.37116 3.48663,3.37116 4.24476,0 13.47218,4.74778 16.00226,8.23363 2.37305,3.2695 1.53393,4.59449 -1.78485,2.81833 -1.31994,-0.7064 -2.98727,-1.08858 -3.70519,-0.84927 -0.71791,0.2393 0.46889,1.30409 2.63734,2.3662 3.90706,1.91368 4.8594,3.18944 8.15994,10.93111 0.93793,2.2 1.87917,4.3378 2.09163,4.75068 0.21246,0.412872 -0.28079,0.494692 -1.09612,0.18182 -0.81532,-0.31287 -1.71918,-0.18574 -2.00857,0.282502 -0.86358,1.39729 1.34356,10.05646 2.89053,11.34033 0.80435,0.66755 1.43333,2.93312 1.43333,5.16282 0,2.18529 0.76898,5.27504 1.70884,6.86609 1.52757,2.58597 1.56746,3.50401 0.37612,8.6543 -0.733,3.1688 -1.55189,9.03844 -1.81977,13.04364 -0.44002,6.57914 -0.66942,7.2243 -2.37611,6.68261 -2.52638,-0.80184 -2.47274,1.52349 0.11092,4.80808 2.62629,3.33878 2.52698,4.16599 -0.67532,5.62506 -2.30907,1.05208 -3.062,0.93306 -5.5,-0.86943 -1.55357,-1.1486 -2.82468,-1.63405 -2.82468,-1.07876 0,0.55529 -1.8,1.9279 -4,3.05026 -4.16813,2.12642 -4.81498,3.72214 -2.81016,6.93237 2.694,4.31379 -4.63727,7.12233 -7.58948,2.90745 -1.18179,-1.68723 -1.38069,-3.87663 -0.90849,-10 0.35143,-4.55721 0.21834,-7.83982 -0.31785,-7.83982 -0.50733,0 -2.93177,2.75928 -5.38766,6.13174 -2.45589,3.37246 -5.91947,7.24093 -7.69684,8.5966 l -3.2316,2.46486 2.10411,4.1534 c 3.36849,6.6492 7.35454,11.11104 19.36796,21.67978 6.20484,5.45868 12.56143,11.94441 14.12577,14.41273 2.54192,4.01084 3.24767,4.49175 6.63969,4.52438 2.78236,0.0268 4.48731,-0.65534 6.38739,-2.55542 2.51077,-2.51077 2.56622,-2.83174 1.7709,-10.25 -1.46817,-13.69426 -1.03107,-20.38863 1.64438,-25.18485 6.18743,-11.09203 22.29664,-11.26021 31.8909,-0.33294 7.70877,8.7798 9.95792,21.79366 6.12643,35.44829 -3.22175,11.48161 -2.88161,15.75067 1.88455,23.65307 4.35899,7.2273 5.38012,13.86807 2.5,16.25836 -1.26247,1.04775 -1.5,0.86485 -1.5,-1.15505 0,-3.09813 -1.99178,-5.87837 -7.12248,-9.94195 l -4.13214,-3.27272 4.27819,7.93486 c 2.353,4.36417 4.8783,8.42935 5.61176,9.03374 0.73347,0.60438 1.04013,1.39233 0.68146,1.75099 -0.35866,0.35867 -0.54291,6.0991 -0.40943,12.75651 0.16908,8.4331 -0.0834,11.90287 -0.83234,11.43999 -0.59126,-0.36542 -1.07502,-1.10368 -1.07502,-1.64057 0,-0.53689 -0.74435,-2.11218 -1.65411,-3.50065 -1.24852,-1.9055 -1.85776,-2.20336 -2.48468,-1.21482 -1.18632,1.8706 -1.05194,10.04392 0.28436,17.29631 1.17946,6.40118 0.62534,11.51336 -1.24796,11.51336 -0.58535,0 -0.86233,-0.5625 -0.61552,-1.25 0.24682,-0.6875 -1.51568,-5.0057 -3.91666,-9.596 -4.20217,-8.03387 -4.36543,-8.67901 -4.36543,-17.25 0,-5.26933 -0.40821,-8.904 -1,-8.904 -0.55,0 -1,0.43498 -1,0.96662 0,0.53164 -2.025,3.24666 -4.5,6.03338 -2.475,2.78672 -4.5,5.78742 -4.5,6.66824 0,1.12222 -0.63758,0.79093 -2.13055,-1.10707 -1.87718,-2.38645 -2.05044,-3.49041 -1.45694,-9.28325 0.64866,-6.33135 0.54585,-6.7671 -2.77762,-11.77261 -4.94177,-7.44285 -6.94596,-13.92176 -6.16304,-19.92315 0.9763,-7.48371 2.63049,-10.49523 10.32047,-18.7889 3.88764,-4.19282 7.74229,-8.9264 8.56589,-10.51907 1.38392,-2.67621 1.32993,-3.1944 -0.7122,-6.83497 -3.63423,-6.47889 -5.56187,-5.45763 -9.28553,4.91946 -3.69864,10.30733 -7.48925,14.85749 -13.86432,16.64239 -4.00163,1.12039 -4.39427,1.54059 -5.46914,5.85299 -0.63691,2.55527 -3.15354,8.40924 -5.59252,13.00883 -5.02195,9.47073 -5.52967,13.56611 -2.4345,19.63711 1.1,2.15759 2,5.59512 2,7.63896 0,2.97604 0.62425,4.20464 3.13464,6.16931 l 3.13463,2.45322 -1.62332,4.7642 c -0.89283,2.62031 -1.91005,8.20218 -2.26048,12.40417 -0.58254,6.98517 -0.40799,8.09219 2.03661,12.91638 2.89749,5.71792 2.73468,8.46432 -0.60784,10.25318 -1.82801,0.97832 -1.98062,1.7133 -1.40754,6.77873 0.96295,8.51132 -0.56415,11.82091 -6.79249,14.721 -5.91367,2.75356 -6.96589,2.88695 -8.47065,1.07383 z m 6.17822,-2.03407 c 4.97846,-2.08013 6.67822,-4.30229 6.67822,-8.73066 v -3.9489 l -3.82034,1.94899 c -2.82678,1.44212 -4.14404,2.94282 -5.06498,5.77033 -0.68455,2.10173 -1.47789,4.38383 -1.76299,5.07133 -0.65795,1.58663 -0.0526,1.56969 3.97009,-0.11109 z m 2.67822,-13.17029 c 0,-0.84227 0.66172,-1.78532 1.47049,-2.09567 0.80877,-0.31035 2.56781,-2.96114 3.90897,-5.89063 2.25002,-4.91469 2.33298,-5.6222 1.07341,-9.15433 -1.71726,-4.81558 -1.74065,-11.73426 -0.0718,-21.25071 l 1.30166,-7.42273 -3.34135,-3.69847 c -2.36969,-2.62293 -3.34138,-4.66043 -3.34138,-7.00633 0,-1.81932 -0.99815,-6.40701 -2.21811,-10.19487 -2.11246,-6.55899 -2.13717,-7.01484 -0.51878,-9.57094 4.91552,-7.76362 7.68244,-14.86037 8.32119,-21.34269 l 0.67412,-6.84125 3.62079,-0.022 c 4.62803,-0.0281 11.37531,-3.08171 13.5223,-6.11983 0.91658,-1.29701 2.38253,-4.83321 3.25767,-7.85821 2.11882,-7.32386 3.92829,-10.70886 6.44431,-12.05539 3.4525,-1.84772 6.59976,-0.37381 7.95221,3.72415 l 1.21109,3.66966 1.27821,-2.43954 c 2.48792,-4.74836 2.66355,-9.16887 0.50256,-12.64888 -2.3311,-3.75394 -4.25821,-4.02865 -8.8067,-1.2554 -4.30609,2.62545 -6.73489,6.81987 -8.77893,15.16076 -1.8451,7.52908 -4.21142,10.81554 -3.05232,4.2392 2.02789,-11.50555 5.51058,-18.89495 10.59039,-22.4702 4.02571,-2.83335 6.26942,-3.04687 9.75335,-0.92816 3.1069,1.88942 3.24665,2.24421 3.24665,8.24258 0,9.80164 -4.88022,19.05628 -15.43024,29.26122 -7.30662,7.06763 -8.41809,8.62005 -9.53672,13.3202 -2.06799,8.68905 0.26354,16.89224 6.9731,24.53401 3.38242,3.85237 3.74332,7.00629 1.371,11.98111 -1.23463,2.58905 -1.36152,3.8531 -0.53041,5.28393 1.01814,1.75282 1.09452,1.72331 1.12286,-0.43387 0.0167,-1.27304 1.00373,-4.57717 2.19335,-7.34252 l 2.16295,-5.02789 -2.66295,-5.42964 c -1.46462,-2.98626 -2.66294,-6.38498 -2.66294,-7.55266 0,-1.20866 1.67623,1.19358 3.89189,5.57757 2.23959,4.43133 3.71442,8.63234 3.47388,9.89521 l -0.41801,2.19459 1.13489,-2.15131 c 0.90689,-1.71909 0.71123,-3.28366 -0.97387,-7.78751 -1.15983,-3.09991 -2.12473,-7.98182 -2.14422,-10.84869 -0.0195,-2.86687 -0.67854,-6.33749 -1.46456,-7.71249 -1.67352,-2.92752 -1.83813,-4 -0.61394,-4 1.49096,0 4.06526,6.48376 5.02346,12.65237 0.49959,3.2162 2.29331,9.67263 3.98604,14.34763 1.69272,4.675 3.11223,10.3 3.15445,12.5 0.0712,3.70836 0.15081,3.81772 1.09232,1.5 1.1538,-2.84033 0.27547,-11.79166 -1.34912,-13.74917 -0.59302,-0.71454 -0.82504,-1.55233 -0.51561,-1.86176 0.30943,-0.30943 1.29605,0.5568 2.1925,1.92495 1.24143,1.89466 1.58437,4.59667 1.43888,11.33676 -0.10506,4.86707 -0.21815,10.53612 -0.25132,12.5979 -0.0332,2.06177 0.37023,4.17921 0.89645,4.70543 0.60901,0.60901 0.97794,-1.84391 1.01505,-6.74868 0.0321,-4.23799 0.25461,-11.78062 0.49456,-16.76141 l 0.43628,-9.05597 -5.18929,-7.6978 c -5.4293,-8.05381 -7.11982,-13.72992 -5.83349,-19.58655 1.15282,-5.24876 2.1611,-4.27119 1.75855,1.70498 -0.34749,5.1587 -0.0353,6.25283 3.33553,11.69132 8.29398,13.38134 8.74428,14.45548 8.83871,21.08338 0.0925,6.49086 1.88162,10.42619 3.19,7.0166 2.14823,-5.5982 -1.8206,-19.02718 -8.87308,-30.02305 -3.78043,-5.89425 -4.034,-11.67684 -0.92423,-21.07693 l 1.98494,-6 -0.064,8 c -0.0757,9.45521 1.27339,12.67034 7.47944,17.82544 4.8344,4.01571 6.2392,3.97201 2.9513,-0.0918 -3.89505,-4.81423 -7.13436,-12.52881 -7.1446,-17.01518 -0.005,-2.35485 0.96214,-7.07985 2.15004,-10.5 3.07267,-8.84675 3.13833,-22.60372 0.135,-28.28666 -6.23005,-11.7886 -18.38529,-16.33574 -27.99626,-10.4731 -5.82466,3.55301 -6.79855,6.80243 -6.79855,22.68362 0,12.73252 -0.19914,14.36263 -1.99764,16.35238 -2.70192,2.98925 -6.81504,5.00592 -10.2027,5.00242 -2.31631,-0.002 -3.23128,-0.81759 -5.29966,-4.72175 -1.75349,-3.30979 -6.31583,-8.01195 -15.27887,-15.74711 -12.46154,-10.75439 -18.38591,-17.08953 -21.39435,-22.87773 l -1.48103,-2.84948 -5.2112,5.59948 c -5.1596,5.54404 -6.30743,6.05392 -12.71437,5.64793 -3.80706,-0.24125 -5.39352,2.15498 -4.02529,6.07988 1.4457,4.14714 1.3954,4.87167 -0.33819,4.87167 -2.37149,0 -4.5567,-4.16122 -4.5567,-8.67719 0,-4.10116 -0.1161,-4.25355 -3.75,-4.92238 -2.0625,-0.37961 -4.8136,-1.51746 -6.11356,-2.52856 -2.30467,-1.79256 -2.42888,-1.787 -4.98451,0.22326 -2.10807,1.65821 -3.45559,1.93646 -6.88643,1.42198 -2.34603,-0.35182 -4.26551,-0.37213 -4.26551,-0.0452 0,1.9228 5.73336,11.31899 10.77315,17.65573 6.91817,8.69849 14.01387,15.27575 23.97685,22.225 4.24027,2.95762 7.25,5.77252 7.25,6.78069 0,2.06235 2.59886,4.86661 4.51016,4.86661 0.84351,0 1.61324,-1.64008 2.00932,-4.28132 0.64871,-4.32592 3.80174,-9.73079 4.98586,-8.54667 0.35317,0.35317 -0.066,2.0116 -0.9316,3.6854 -2.3791,4.60067 -1.96948,12.921 1.05025,21.33299 5.45268,15.18941 11.57877,24.09466 20.77373,30.19793 6.42875,4.26716 8.18325,7.16575 12.08831,19.97104 2.9385,9.63581 2.95393,9.40897 -1.5075,22.1582 -1.65975,4.743 -1.88573,6.59632 -1.0669,8.75 1.10325,2.90177 4.08837,3.77871 4.08837,1.20105 z m 3,-12.9096 c 0,-0.79254 0.45,-1.7191 1,-2.05902 0.55,-0.33992 1,0.30852 1,1.44098 0,1.13246 -0.45,2.05902 -1,2.05902 -0.55,0 -1,-0.64844 -1,-1.44098 z m 23.21862,-62.30902 c -1.07683,-2.62233 -0.86547,-14.00304 0.28138,-15.15077 0.66672,-0.66724 1,1.98188 1,7.94876 0,4.92225 -0.12662,8.95009 -0.28138,8.95077 -0.15477,6.8e-4 -0.60477,-0.78626 -1,-1.74876 z m -133.3174,46.30108 c 4.02454,-2.08117 9.09878,-8.21711 9.09878,-11.00254 0,-2.99956 -1.67011,-3.59768 -5.5,-1.96973 -1.65,0.70135 -3.7875,1.51891 -4.75,1.8168 -1.14147,0.35329 -1.75,1.55314 -1.75,3.45056 0,1.59992 -0.675,3.46914 -1.5,4.15383 -1.96433,1.63025 -1.93086,5 0.0497,5 0.85232,0 2.81052,-0.65201 4.35156,-1.44892 z m 5.93054,-18.18284 c 3.15633,-3.15633 3.9641,-3.50631 6.17049,-2.67349 2.97519,1.123 4.99775,0.66096 4.99775,-1.14172 0,-2.41796 5.01402,-6.29016 10.94541,-8.45285 4.25353,-1.55092 6.79807,-3.25109 8.97011,-5.99352 2.44301,-3.08455 4.25166,-4.1645 9.30833,-5.558 6.98934,-1.9261 10.77833,-3.97388 10.77185,-5.82171 -0.002,-0.67482 -1.84328,-3.65263 -4.09092,-6.61736 -3.66155,-4.82973 -3.84312,-5.31974 -1.7457,-4.71108 6.01218,1.74472 8.40291,1.65838 11.73529,-0.42379 l 3.39437,-2.12091 -2.97406,-1.80864 c -1.63573,-0.99475 -3.52515,-3.09935 -4.1987,-4.6769 -0.67354,-1.57755 -3.23812,-4.14946 -5.69906,-5.71537 -2.46094,-1.5659 -7.16006,-5.09115 -10.44248,-7.83387 l -5.96804,-4.98678 -7.68097,-0.0847 c -9.00127,-0.0993 -9.15751,0.0742 -9.23318,10.25248 -0.0614,8.25824 2.1119,13.16828 8.80811,19.89983 6.55734,6.59195 6.81837,9.71298 1.25182,14.96782 -6.08739,5.74653 -11.16578,9.06461 -15.57265,10.17476 -10.10703,2.54609 -10.74318,3.02091 -13.69418,10.22135 -2.68084,6.5412 -2.70177,6.73621 -0.72305,6.73621 1.12074,0 3.67199,-1.63429 5.66946,-3.63176 z m 8.16824,-6.36824 c 1.05696,-1.97494 3,-2.75216 3,-1.2 0,1.05167 -2.17195,3.2 -3.23518,3.2 -0.45935,0 -0.35352,-0.9 0.23518,-2 z m -17.40524,-48.2167 c -0.94138,-6.27759 -3.94443,-10.7833 -7.18705,-10.7833 -1.97979,0 -2.47307,0.38728 -2.0147,1.58179 0.33385,0.86998 0.60699,4.01998 0.60699,7 0,5.39503 0.0133,5.41821 3.10699,5.41821 2.22883,0 2.95752,0.38952 2.57815,1.37814 -0.29087,0.75798 -0.005,1.90178 0.63477,2.54176 1.81351,1.81352 3.04,-2.03418 2.27485,-7.1366 z m -9.95962,-3.27487 c 0.3148,-0.82036 -0.34886,-3.05292 -1.4748,-4.96125 -1.51072,-2.56048 -1.89008,-4.43774 -1.44768,-7.16391 0.4315,-2.65904 0.27554,-3.49401 -0.55658,-2.97973 -0.63584,0.39297 -1.15608,1.38949 -1.15608,2.21449 0,0.825 -0.35633,1.27978 -0.79184,1.01062 -0.43551,-0.26916 -0.90207,-6.1343 -1.0368,-13.03364 -0.24416,-12.50347 -0.23624,-12.55164 2.43506,-14.81963 1.47401,-1.25146 3.44663,-3.07374 4.38361,-4.04951 1.58898,-1.65477 2.13437,-1.67259 8.10678,-0.26478 7.79348,1.83706 16.36461,1.89911 20.40319,0.14769 2.34632,-1.01753 3.76263,-1.04835 6.5,-0.14143 1.925,0.63777 4.31306,0.98061 5.30679,0.76186 1.9746,-0.43467 3.69321,-4.01747 3.69321,-7.69929 0,-2.81594 8.02258,-8.01879 11.11691,-7.2096 1.55746,0.40729 2.52398,-0.64695 4.88974,-5.3335 1.62173,-3.21262 3.40866,-6.12546 3.97097,-6.47299 1.69866,-1.04983 1.14981,-2.51383 -0.94244,-2.51383 -1.08065,0 -2.48988,0.9811 -3.13163,2.18022 -1.1304,2.11217 -1.20977,2.12148 -2.54288,0.29835 -1.62825,-2.22676 -0.89653,-10.75246 1.21272,-14.13001 1.84884,-2.96055 9.49258,-5.74637 13.63478,-4.96929 1.81195,0.33992 5.51057,2.19365 8.21916,4.11938 5.83862,4.15111 9.33619,4.41266 13.3903,1.00135 4.14657,-3.48911 5.14982,-3.12402 1.61946,0.58933 -3.79676,3.99357 -16.17075,10.8804 -19.5801,10.89745 -1.45366,0.007 -2.89912,-0.65419 -3.21215,-1.46992 -0.32533,-0.84781 -1.23121,-1.22908 -2.11471,-0.89005 -0.85006,0.3262 -2.65126,-0.13139 -4.00267,-1.01686 -3.11499,-2.04102 -5.91592,-2.05174 -7.59458,-0.0291 -1.16501,1.40374 -0.92662,1.5121 2.12755,0.96713 2.55313,-0.45556 4.33301,-0.0597 6.90629,1.53623 l 3.46672,2.14996 -3.53946,1.81585 c -3.88302,1.99211 -8.17597,7.76036 -9.26572,12.44995 -1.81976,7.8311 -4.38925,10.77317 -7.29947,8.35791 -0.93509,-0.77606 -1.20539,-2.14328 -0.79401,-4.01627 0.48764,-2.22019 0.30873,-2.71882 -0.82009,-2.28565 -0.79408,0.30472 -1.93828,1.63932 -2.54265,2.96578 -0.93157,2.04456 -0.71404,2.86908 1.42882,5.41573 1.39023,1.65219 4.13474,3.44771 6.09891,3.99005 5.61105,1.54928 9.3305,-0.56959 13.73897,-7.8267 4.32636,-7.12197 7.30829,-9.57082 17.56126,-14.42185 9.51259,-4.50073 10.49669,-5.33902 12.92897,-11.01329 2.36408,-5.51518 3.15208,-5.94002 2.39795,-1.29284 -0.30104,1.85508 -0.0971,3.65114 0.45322,3.99125 1.49391,0.92329 2.43041,-5.74177 1.71412,-12.19937 l -0.62834,-5.66472 2.31309,4.361 2.3131,4.361 0.72586,-4.25194 c 0.39922,-2.33856 0.48694,-4.63852 0.19493,-5.111 -0.29202,-0.47249 0.003,-0.85906 0.65531,-0.85906 0.82732,0 1.03472,1.57697 0.68546,5.21179 -0.38084,3.9635 -0.0278,6.11931 1.47418,9.00084 1.67012,3.20421 1.86647,4.86939 1.27207,10.78821 -0.60319,6.00627 -0.47899,6.99916 0.87554,6.99916 3.23126,0 4.87907,-4.47438 4.13509,-11.22819 -0.72795,-6.60827 -2.01044,-13.30498 -3.08366,-16.10174 -0.93506,-2.43671 1.27281,-2.06128 4.01718,0.68309 3.02186,3.02185 4.95267,11.84919 3.60807,16.49541 -0.75165,2.59729 -0.61604,3.88736 0.6044,5.75 2.10186,3.20784 4.76991,3.23667 3.96832,0.0429 -0.32558,-1.2972 -1.04014,-5.51866 -1.58792,-9.38102 -1.29132,-9.10497 -2.4002,-11.86322 -6.19405,-15.40721 -1.71456,-1.60164 -2.89642,-3.13304 -2.62635,-3.40311 0.27007,-0.27007 2.34845,1.52403 4.61863,3.98688 2.8428,3.08408 4.32786,5.73034 4.771,8.50158 0.70313,4.39711 3.39383,7.85541 3.39383,4.36199 0,-6.48882 -5.79857,-15.50432 -13.39974,-20.83365 -2.53419,-1.77677 -2.95346,-2.78526 -3.32594,-8 l -0.42621,-5.96693 3.32595,3.60193 c 1.82927,1.98106 4.58492,4.36801 6.12368,5.30433 2.99366,1.82162 6.69568,7.12777 6.6934,9.59374 -7.6e-4,0.825 -1.02532,-0.19137 -2.27679,-2.25861 -1.93507,-3.19644 -8.38072,-8.74139 -10.1613,-8.74139 -0.30418,0 -0.55305,0.7021 -0.55305,1.56023 0,0.85812 3.34775,4.81163 7.43944,8.78557 8.13461,7.9005 8.51708,7.86366 8.54691,-0.82324 0.0127,-3.70624 -0.593,-4.55853 -8.88366,-12.5 -6.86635,-6.57715 -9.18734,-9.50002 -10.1679,-12.80466 -0.69883,-2.35515 -1.59849,-3.930152 -1.99925,-3.5 -0.40076,0.43015 -0.91995,5.0571 -1.15374,10.2821 -0.31452,7.02882 -1.02377,10.86564 -2.72659,14.75 -1.26582,2.8875 -2.67078,5.25 -3.12212,5.25 -0.45135,0 0.16657,-2.1375 1.37314,-4.75 1.8953,-4.10374 2.19377,-6.48475 2.19377,-17.50032 0,-7.01267 0.3375,-12.750172 0.75,-12.750002 0.4125,1.7e-4 0.75,0.40153 0.75,0.89191 0,0.49037 1.1149,1.17141 2.47756,1.51342 1.36266,0.342 5.00114,2.677312 8.08551,5.189562 5.78736,4.71387 7.09102,5.04163 5.96701,1.5002 -0.41654,-1.31241 -3.61406,-3.48809 -8.84131,-6.015892 -5.39963,-2.61116 -10.36406,-6.02383 -14.57531,-10.01941 -5.69463,-5.40299 -7.07578,-7.58946 -3.27078,-5.17787 2.30582,1.46142 17.15732,-3.88212 17.15732,-6.17318 0,-1.31536 -6.66537,-3.71134 -10.21788,-3.67299 -1.80517,0.0195 -4.40712,0.67854 -5.78212,1.46457 -2.87125,1.64135 -10.45198,2.04034 -9.5,0.5 0.33992,-0.55 2.56138,-1 4.93657,-1 2.56454,0 4.81027,-0.5925 5.52924,-1.4588 2.15235,-2.59343 -3.12171,-3.01248 -7.81025,-0.62057 -4.36572,2.22723 -8.65014,2.70617 -9.65556,1.07937 -0.3635,-0.58816 0.71771,-1 2.62526,-1 3.82523,0 11.79262,-3.62242 12.60104,-5.72915 0.65781,-1.71422 -1.33997,-3.23362 -4.28052,-3.25554 -1.12982,-0.008 -4.18295,1.33469 -6.78473,2.98469 -5.73486,3.63694 -7.43201,3.86187 -4.1156,0.54545 2.76074,-2.76073 3.28639,-6.54545 0.9091,-6.54545 -1.93125,0 -5.38458,3.56483 -7.78804,8.0395 -1.68301,3.13337 -1.92039,3.25823 -2.89235,1.52143 -0.92266,-1.64871 -1.20132,-1.69871 -2.16651,-0.38873 -0.60921,0.82683 -1.76615,1.72084 -2.57099,1.98668 -1.09403,0.36136 -0.72914,1.09634 1.44582,2.91223 1.60005,1.33589 3.94605,3.42093 5.21335,4.63343 1.48325,1.41912 2.30417,1.72978 2.30417,0.87197 0,-0.73291 -1.0125,-2.01327 -2.25,-2.84523 -1.2375,-0.83196 -1.87422,-1.89935 -1.41493,-2.37197 0.45929,-0.47262 1.93234,0.41554 3.27343,1.97369 2.12887,2.47342 2.36364,3.48884 1.84966,8 -0.54744,4.80495 -0.47902,5.03098 0.97657,3.22587 1.7447,-2.16365 2.11519,-8.10097 0.56527,-9.05887 -1.35918,-0.84002 -1.26638,-2.5 0.13976,-2.5 3.45791,0 4.94517,7.41161 2.4074,11.99705 -0.91213,1.64812 -1.05218,2.89444 -0.41192,3.66591 0.67626,0.81483 0.31461,1.37687 -1.1941,1.85572 -3.06948,0.97421 -5.13485,-1.49682 -6.93122,-8.29264 -1.21936,-4.61293 -1.95063,-5.78816 -3.76176,-6.0456 -1.63477,-0.23236 -2.24816,0.1844 -2.24816,1.5275 0,1.01587 -0.73992,2.90343 -1.64427,4.19456 -1.47644,2.10791 -2.18954,2.29124 -6.9865,1.79615 -2.93822,-0.30325 -5.59986,-0.1345 -5.91475,0.37499 -1.1576,1.87305 -2.53334,0.94222 -1.48966,-1.0079 0.56935,-1.06385 1.03518,-3.0567 1.03518,-4.42857 0,-4.37108 2.59788,-5.91786 8.66592,-5.15971 5.59686,0.69928 6.28292,0.16066 3.8675,-3.03633 -0.94588,-1.25195 -1.26141,-3.09502 -0.88871,-5.19113 0.72402,-4.07196 -0.45197,-4.11392 -4.20762,-0.15015 -1.6154,1.70492 -4.86655,4.43821 -7.22479,6.07398 -2.67051,1.85237 -4.8641,4.41471 -5.81595,6.79361 -0.84054,2.10072 -2.83999,4.98825 -4.44322,6.41673 -1.60322,1.42849 -4.28019,5.30176 -5.94882,8.60729 -1.66862,3.30552 -3.88231,6.539912 -4.9193,7.187522 -1.037,0.64762 -1.6572,1.77228 -1.37824,2.49925 0.27897,0.72697 0.0466,1.32177 -0.51644,1.32177 -0.56301,0 -1.25063,-0.5625 -1.52805,-1.25 -0.27741,-0.6875 -0.53991,0.1225 -0.58333,1.8 -0.11885,4.59145 1.40098,5.54477 6.16183,3.86504 8.03699,-2.83561 11.35615,-1.03371 6.25922,3.39801 -2.77143,2.40973 -3.31404,5.18695 -1.01342,5.18695 0.81762,0 2.11988,-1.51568 2.89389,-3.36818 1.37069,-3.28052 7.2027,-8.63182 9.40722,-8.63182 0.60439,0 1.79437,-0.99292 2.64438,-2.20649 1.48259,-2.11669 1.60018,-2.13167 2.88964,-0.36822 0.73929,1.01103 3.50533,2.65861 6.14675,3.66128 l 4.80258,1.82302 4.21526,-2.90017 c 2.31839,-1.59509 5.94232,-5.16484 8.05317,-7.93277 4.35081,-5.705162 5.43687,-5.936392 2.91431,-0.620492 -2.91881,6.150932 -11.75062,13.060772 -22.73234,17.785332 -11.30378,4.86313 -17.1871,9.37237 -19.83531,15.2027 -1.34612,2.96363 -1.84812,3.4658 -1.86416,1.86482 -0.0374,-3.73412 -1.70067,-3.50986 -7.19665,0.97035 -5.65953,4.61352 -7.95651,9.07375 -9.25474,17.97064 l -0.69312,4.75 h 2.99388 c 2.05407,0 3.18157,-0.59135 3.59178,-1.88379 0.75194,-2.36915 10.97255,-12.11621 12.70487,-12.11621 0.70823,0 -0.40364,1.39415 -2.47083,3.0981 -2.0672,1.70396 -4.80887,5.16482 -6.09262,7.69082 l -2.33409,4.59272 -9.15645,2.24606 c -5.03606,1.23533 -13.12569,4.07446 -17.97697,6.30918 -4.85128,2.23472 -9.75907,4.06312 -10.90619,4.06312 -1.14712,0 -3.03187,1.20289 -4.18833,2.67309 -1.79691,2.2844 -2.00915,3.49955 -1.45962,8.35675 0.35367,3.12601 0.11865,9.62417 -0.52226,14.44034 -0.98999,7.4393 -0.94491,9.00288 0.29967,10.39325 0.80574,0.90011 2.63913,4.30232 4.07421,7.56047 1.43509,3.25814 3.1045,6.52064 3.70981,7.25 1.4797,1.78292 4.78133,1.68343 5.49082,-0.16547 z m 61.36486,-50.89404 c 0.825,-1.03708 2.85,-4.3955 4.5,-7.46315 3.06773,-5.70348 6.56827,-8.51237 12,-9.62899 2.73242,-0.56171 2.64322,-0.42408 -1,1.54306 -5.32355,2.87443 -9.2822,6.65543 -11.51849,11.00159 -1.00944,1.96179 -2.65572,4.21179 -3.65842,5 -1.6989,1.33548 -1.72091,1.30465 -0.32309,-0.45251 z m 20.8125,-18.2975 c 0.72187,-0.28887 1.58437,-0.25335 1.91667,0.0789 0.33229,0.3323 -0.25834,0.56864 -1.3125,0.52522 -1.16495,-0.048 -1.4019,-0.28494 -0.60417,-0.60416 z m 5.9375,-2.30593 c 1.7875,-1.08986 3.25,-2.43818 3.25,-2.99626 0,-0.55809 0.5625,-1.00151 1.25,-0.98539 1.60653,0.0377 -4.87354,5.97193 -6.51578,5.96695 -0.67882,-0.002 0.22828,-0.89544 2.01578,-1.9853 z m 14.81487,-28.72056 c 0.29934,-1.21527 1.19548,-5.04027 1.99143,-8.5 l 1.44717,-6.2904 -0.55415,5.38548 c -0.30478,2.96202 -1.20093,6.78702 -1.99143,8.5 -0.7905,1.71298 -1.19236,2.1202 -0.89302,0.90492 z m -41.8982,-16.95707 c -1.03737,-1.03737 -0.78384,-4.33333 0.33333,-4.33333 0.55,0 1,1.125 1,2.5 0,2.61806 -0.23099,2.93567 -1.33333,1.83333 z m 41.43647,-8.924652 c -0.70425,-1.94758 -2.63718,-5.08627 -4.29539,-6.97487 -1.65821,-1.8886 -2.54122,-3.43381 -1.96223,-3.43381 2.3075,0 9.4144,12.0734 7.9619,13.525912 -0.2331,0.2331 -1.00003,-1.169652 -1.70428,-3.117232 z m -25.60314,-23.40868 c -0.33992,-0.55 -0.16803,-1 0.38197,-1 0.55,0 1.27811,0.45 1.61803,1 0.33992,0.55 0.16803,1 -0.38197,1 -0.55,0 -1.27811,-0.45 -1.61803,-1 z M 237.26299,185.53777 c 0.98046,-1.56998 2.33202,-2 6.286,-2 4.01457,0 5.5352,-0.49822 7.49152,-2.45455 1.35,-1.35 2.45455,-3.15914 2.45455,-4.02032 0,-1.36429 -0.48257,-1.32321 -3.75,0.31922 -2.0625,1.03675 -5.36411,2.40657 -7.33691,3.04405 -3.70846,1.19833 -7.91309,4.46643 -7.91309,6.15056 0,1.6163 1.44947,1.07223 2.76793,-1.03896 z m 12.58856,-9.85491 c 1.755,-1.01072 3.37647,-3.17277 4.20495,-5.6068 1.58007,-4.6422 3.86289,-6.5766 10.635,-9.01182 5.51447,-1.98297 10.80356,-5.956 10.80356,-8.11536 0,-1.99843 -0.77902,-1.77604 -4.35564,1.24343 -1.7294,1.46 -6.79261,4.33485 -11.25159,6.38857 -9.07145,4.17813 -11.46384,6.2924 -15.04222,13.29356 l -2.47208,4.83668 2.31076,-0.69159 c 1.27092,-0.38037 3.59619,-1.43187 5.16726,-2.33667 z m 17.25149,-10.2578 c 3.22674,-3.36799 3.28983,-3.34308 -3.41981,-1.35053 -3.89053,1.15536 -5.54876,2.25985 -6.6815,4.45034 -2.8503,5.51188 -1.93357,6.44375 2.91422,2.96233 2.43149,-1.74616 5.66568,-4.47412 7.18709,-6.06214 z m 18.42571,3.2302 c -0.59786,-2.08462 -0.59429,-5.16146 0.01,-8.34616 1.41344,-7.45308 1.17693,-11.36755 -0.92365,-15.28677 -1.77354,-3.30904 -1.91468,-3.3798 -2.48634,-1.24638 -0.99173,3.70109 -0.71565,9.59294 0.48426,10.33452 0.76848,0.47495 0.90162,3.16708 0.42616,8.61759 -0.49674,5.69455 -0.34467,8.34472 0.53999,9.41066 1.87539,2.25972 3.01377,0.22603 1.9499,-3.48346 z m -53.5984,-1.01553 c -0.62769,-0.62769 -2.41268,1.9121 -2.38817,3.39804 0.009,0.55 0.67253,0.13285 1.47435,-0.927 0.80183,-1.05985 1.21305,-2.17182 0.91382,-2.47104 z m -35.89781,-20.90111 c 0.61251,-3.38682 1.86714,-6.99047 2.78808,-8.0081 2.43589,-2.69162 2.07121,-3.8634 -1.41963,-4.56157 -5.49939,-1.09988 -16.18356,-6.81156 -20.8549,-11.14889 -6.13238,-5.6939 -7.76114,-6.04306 -14.72693,-3.157 -3.20325,1.32717 -8.92048,2.71548 -12.70496,3.08513 -8.23581,0.80443 -13.11964,2.68485 -15.78994,6.07959 -1.0859,1.38049 -2.53069,2.50999 -3.21065,2.50999 -0.67996,0 -2.09281,0.6263 -3.13967,1.39178 -1.61719,1.18252 -1.7027,1.6336 -0.56868,3 2.05838,2.4802 5.48641,1.91439 8.43222,-1.39178 2.95642,-3.31808 3.37799,-3.437 7.12876,-2.01096 2.20571,0.83861 2.71611,0.67888 3.35572,-1.05015 0.63628,-1.72002 1.92188,-2.13222 8.21373,-2.63358 15.18294,-1.20983 17.73854,-0.2695 24.95937,9.1838 6.48607,8.49137 13.7109,15.77392 15.16728,15.28846 0.69111,-0.23036 1.7577,-3.18989 2.3702,-6.57672 z m 100.46252,1.26703 c 0,-3.53084 -2.33828,-10.46788 -3.52843,-10.46788 -0.34676,0 -0.39381,1.2375 -0.10455,2.75 0.28926,1.5125 0.81457,4.6625 1.16735,7 0.77627,5.14343 2.46563,5.6353 2.46563,0.71788 z m -38.54705,-1.6284 c 1.40088,-0.63828 2.54705,-1.44614 2.54705,-1.79525 0,-1.35601 -12.67146,-7.04499 -15.69098,-7.04462 -4.48099,5.4e-4 -4.82331,1.38471 -0.81514,3.29608 1.87452,0.89389 4.15701,2.76805 5.07218,4.16479 1.82333,2.78275 4.79422,3.24375 8.88689,1.379 z m -14.75871,-3.37108 c -3.19573,-2.81148 -5.88384,-3.14981 -7.69424,-0.9684 -1.06696,1.28561 -0.73557,1.5 2.31854,1.5 1.95988,0 3.84154,0.45 4.18146,1 0.33992,0.55 1.37898,0.98578 2.30902,0.9684 1.29867,-0.0243 1.04003,-0.60428 -1.11478,-2.5 z m -13.59038,-25.35498 c 3.63213,-1.19857 7.4142,-2.77175 8.4046,-3.49596 1.66803,-1.21968 1.55717,-1.43824 -1.50408,-2.9654 -2.96957,-1.48141 -3.60952,-1.49666 -6.30825,-0.15036 -1.65187,0.82406 -3.49677,1.50519 -4.09977,1.51361 -2.12158,0.0296 -3.64239,1.6584 -4.57067,4.89511 -0.70194,2.44751 -0.63447,3.15821 0.26827,2.82602 0.66332,-0.24409 4.17778,-1.42445 7.8099,-2.62302 z m -16.17195,-2.01779 c 2.72531,-3.82735 2.62021,-4.18407 -0.87385,-2.96603 -3.45423,1.20415 -5.49575,3.35318 -4.58513,4.82659 1.14889,1.85895 3.34292,1.11116 5.45898,-1.86056 z m 91.06809,0.35662 c 0,-1.67925 -4.66113,-6.45225 -6.30101,-6.45225 -0.55493,0 -0.26422,0.82293 0.64602,1.82874 0.91025,1.0058 1.65499,2.33344 1.65499,2.95031 0,0.61686 0.7875,1.58024 1.75,2.14085 2.2796,1.32774 2.25,1.33389 2.25,-0.46765 z m -4,-20.804372 c 0,-5.13022 -9.33602,-11.48788 -17,-11.5767 -5.6581,-0.0656 -6.68508,1.15797 -4.06288,4.84051 3.1847,4.4725 10.8034,8.18165 9.42451,4.58831 -1.03132,-2.68758 5.44932,-1.88854 7.96404,0.98193 2.43844,2.78339 3.67433,3.17557 3.67433,1.16595 z m -64,-11.64788 c 0,-0.55 -0.19844,-1 -0.44098,-1 -0.24254,0 -0.7191,0.45 -1.05902,1 -0.33992,0.55 -0.14148,1 0.44098,1 0.58246,0 1.05902,-0.45 1.05902,-1 z m -2.17886,-2.08521 c 1.14835,-1.8388 1.08951,-2.04424 -0.49797,-1.73851 -0.99011,0.19067 -1.95087,1.12901 -2.13501,2.0852 -0.45939,2.38542 1.05094,2.18656 2.63298,-0.34669 z m 5.78303,-0.64396 c -1.01652,-1.01652 -1.85525,0.51389 -1.02122,1.86338 0.63003,1.01942 0.86558,1.02021 1.2043,0.004 0.2316,-0.69478 0.14921,-1.53512 -0.18308,-1.86741 z m -10.80451,-8.68706 c 3.1761,-1.66574 10.20034,-9.84172 10.20034,-11.87284 0,-1.15164 -1.04415,-1.24442 -5.73182,-0.50932 -3.1525,0.49436 -6.71674,0.65164 -7.92054,0.3495 -2.47497,-0.62118 -5.34764,0.21461 -5.34764,1.55587 0,0.49116 0.79987,0.89302 1.77749,0.89302 0.97763,0 2.74609,0.67842 3.92993,1.50762 1.95516,1.36945 2.47961,1.31457 5.7225,-0.59878 1.96355,-1.15852 3.57008,-1.69481 3.57008,-1.19176 0,1.65393 -8.03109,5.50805 -10.26189,4.92468 -1.17372,-0.30693 -2.70012,-0.0883 -3.39201,0.48596 -0.97515,0.8093 -0.64962,1.57966 1.44797,3.42655 3.24166,2.85423 2.70256,2.76181 6.00559,1.0295 z m 19.52933,-6.7407 c 1.17905,-1.8724 -0.28795,-8.0371 -2.69635,-11.33079 -1.33162,-1.821104 -1.53077,-1.594413 -3.02779,3.44659 -1.45445,4.89768 -1.45819,5.61601 -0.0405,7.77968 1.71956,2.62438 4.15015,2.66845 5.76464,0.10452 z m 16.22831,-2.26131 c 2.28953,-1.67415 1.10049,-3.48646 -1.29574,-1.97495 -1.87258,1.18119 -2.8739,3.39319 -1.53602,3.39319 0.49071,0 1.765,-0.63821 2.83176,-1.41824 z m -28.72568,-8.28464 c -1.36699,-1.64713 -4.27755,-1.671537 -5.61896,-0.0471 -0.79391,0.96139 -0.14014,1.26087 2.83162,1.29711 3.05556,0.0373 3.63866,-0.22423 2.78734,-1.24999 z"
     style="fill:#000000" />
</svg>
